#!OML:ASF E:\motion texture\Top Level 1\Subject 1\Session 1\male.ASF
:FULLY-SPECIFIED
:DEGREES
346
root -15.285 17.8057 4.48356 403.988 -85.5063 -396.568
lowerback 0.284811 -1.94154 0.797278
upperback -1.44106 -2.60339 4.56326
thorax -1.46273 -1.31836 4.29216
lowerneck -14.1701 -3.55652 -5.45299
upperneck 27.1894 -6.61054 7.70186
head 11.6562 -2.85211 2.78992
rclavicle 2.00773e-014 -3.18055e-014
rhumerus -27.6159 -16.1747 -71.1674
rradius 20.9964
rwrist 12.1751
rhand -14.3856 -23.8579
rfingers 7.12502
rthumb 11.7573 -53.5079
lclavicle 2.00773e-014 -3.18055e-014
lhumerus -19.9224 5.35614 72.8899
lradius 50.1979
lwrist -4.821
lhand -21.4517 16.6618
lfingers 7.12502
lthumb 4.9382 46.5842
rfemur -29.9242 -0.828107 22.0184
rtibia 21.6201
rfoot 3.27557 -12.6701
rtoes 16.5523
lfemur 0.143858 -4.03879 -14.5714
ltibia 37.1641
lfoot 1.15691 -4.48388
ltoes -28.2492
347
root -15.4663 17.8285 4.45951 407.424 -85.3972 -400.112
lowerback 0.316531 -1.87784 1.09641
upperback -1.38004 -2.51907 4.63122
thorax -1.43324 -1.28148 4.1929
lowerneck -14.2108 -3.64018 -5.52669
upperneck 27.1905 -6.70671 7.69568
head 11.6755 -2.90179 2.7855
rclavicle -1.25234e-014 -2.94201e-014
rhumerus -27.6139 -16.8184 -71.0421
rradius 20.3767
rwrist 12.8522
rhand -14.3413 -23.8173
rfingers 7.12502
rthumb 11.8 -53.4648
lclavicle -1.25234e-014 -2.94201e-014
lhumerus -20.6707 3.96401 73.7114
lradius 49.918
lwrist -5.42397
lhand -21.0099 16.4974
lfingers 7.12502
lthumb 5.36475 46.4095
rfemur -29.1841 -0.733474 22.554
rtibia 21.7199
rfoot 2.8243 -12.3355
rtoes 17.2921
lfemur -0.853364 -3.70859 -14.014
ltibia 39.1161
lfoot 4.23138 -4.69801
ltoes -25.9589
348
root -15.6468 17.8496 4.43513 410.899 -85.1896 -403.701
lowerback 0.319811 -1.82066 1.46146
upperback -1.30662 -2.44537 4.71227
thorax -1.37592 -1.25102 4.06886
lowerneck -14.2512 -3.72285 -5.5889
upperneck 27.1882 -6.80664 7.69784
head 11.6938 -2.95097 2.78154
rclavicle 9.93923e-017 3.10104e-014
rhumerus -27.5844 -17.4967 -70.9104
rradius 19.7404
rwrist 13.6385
rhand -14.2906 -23.772
rfingers 7.12502
rthumb 11.8489 -53.4167
lclavicle 9.93923e-017 3.10104e-014
lhumerus -21.4121 2.61365 74.588
lradius 49.5831
lwrist -5.97767
lhand -20.4649 16.3161
lfingers 7.12502
lthumb 5.89096 46.2142
rfemur -28.3882 -0.627332 23.165
rtibia 21.7247
rfoot 2.36714 -12.0762
rtoes 17.8829
lfemur -1.88839 -3.42853 -13.39
ltibia 41.0733
lfoot 7.15865 -4.92013
ltoes -23.0237
349
root -15.8264 17.869 4.41033 414.275 -84.8847 -407.188
lowerback 0.290621 -1.7671 1.88735
upperback -1.22596 -2.37921 4.81034
thorax -1.29356 -1.22516 3.92717
lowerneck -14.2851 -3.80469 -5.64615
upperneck 27.1889 -6.91028 7.70847
head 11.7124 -3.00058 2.77939
rclavicle -1.68967e-015 3.65764e-014
rhumerus -27.5328 -18.1959 -70.7693
rradius 19.0985
rwrist 14.5328
rhand -14.2377 -23.7182
rfingers 7.12502
rthumb 11.8999 -53.3601
lclavicle -1.68967e-015 3.65764e-014
lhumerus -22.1416 1.32689 75.5199
lradius 49.1846
lwrist -6.49154
lhand -19.8814 16.0611
lfingers 7.12502
lthumb 6.45427 45.9427
rfemur -27.5634 -0.494123 23.8529
rtibia 21.6639
rfoot 1.87709 -11.9069
rtoes 18.3209
lfemur -2.96855 -3.18508 -12.6953
ltibia 43.0454
lfoot 9.71586 -5.16187
ltoes -19.8214
350
root -16.005 17.887 4.38523 417.418 -84.5056 -410.439
lowerback 0.237939 -1.71205 2.35392
upperback -1.14319 -2.31384 4.92
thorax -1.19619 -1.19997 3.77413
lowerneck -14.312 -3.88827 -5.69271
upperneck 27.2007 -7.02299 7.72305
head 11.7346 -3.05309 2.77566
rclavicle -6.16232e-015 2.22639e-014
rhumerus -27.4692 -18.9046 -70.6217
rradius 18.463
rwrist 15.5292
rhand -14.1934 -23.6522
rfingers 7.12502
rthumb 11.9426 -53.2916
lclavicle -6.16232e-015 2.22639e-014
lhumerus -22.8557 0.117374 76.5004
lradius 48.711
lwrist -6.98341
lhand -19.1858 15.8595
lfingers 7.12502
lthumb 7.12576 45.7196
rfemur -26.7209 -0.327214 24.5987
rtibia 21.562
rfoot 1.35061 -11.8347
rtoes 18.5686
lfemur -4.09036 -2.95536 -11.9491
ltibia 45.0346
lfoot 11.706 -5.38291
ltoes -16.7466
351
root -16.1823 17.904 4.36047 420.199 -84.0904 -413.335
lowerback 0.178765 -1.65201 2.83013
upperback -1.0594 -2.24395 5.03291
thorax -1.09377 -1.17217 3.61925
lowerneck -14.325 -3.97357 -5.73938
upperneck 27.225 -7.14354 7.74473
head 11.7599 -3.10895 2.77369
rclavicle -2.98177e-016 4.21423e-014
rhumerus -27.4009 -19.6119 -70.4642
rradius 17.8477
rwrist 16.6216
rhand -14.1646 -23.5551
rfingers 7.12502
rthumb 11.9704 -53.1929
lclavicle -2.98177e-016 4.21423e-014
lhumerus -23.552 -0.991679 77.5233
lradius 48.1479
lwrist -7.49456
lhand -18.3533 15.7239
lfingers 7.12502
lthumb 7.92938 45.5552
rfemur -25.8602 -0.139436 25.3636
rtibia 21.4359
rfoot 0.799218 -11.8422
rtoes 18.6444
lfemur -5.2421 -2.72209 -11.1942
ltibia 47.0326
lfoot 13.0088 -5.51378
ltoes -14.3259
352
root -16.3581 17.9207 4.3364 422.641 -83.6856 -415.907
lowerback 0.13268 -1.57923 3.27942
upperback -0.974842 -2.15766 5.13709
thorax -0.996937 -1.13521 3.47125
lowerneck -14.3232 -4.06445 -5.78841
upperneck 27.2619 -7.27738 7.77448
head 11.7887 -3.17074 2.77343
rclavicle 5.36719e-015 -3.02153e-014
rhumerus -27.3358 -20.3098 -70.2972
rradius 17.2679
rwrist 17.7884
rhand -14.1425 -23.4243
rfingers 7.12502
rthumb 11.9917 -53.0608
lclavicle 5.36719e-015 -3.02153e-014
lhumerus -24.2265 -1.97987 78.5797
lradius 47.4902
lwrist -8.05665
lhand -17.3467 15.656
lfingers 7.12502
lthumb 8.90077 45.4482
rfemur -24.9723 0.0704673 26.1035
rtibia 21.2841
rfoot 0.243189 -11.9017
rtoes 18.6685
lfemur -6.40425 -2.45863 -10.4732
ltibia 49.0132
lfoot 13.5815 -5.49045
ltoes -12.9527
353
root -16.5322 17.9374 4.31354 424.8 -83.3278 -418.217
lowerback 0.11652 -1.49224 3.67755
upperback -0.894121 -2.0507 5.22118
thorax -0.919377 -1.08673 3.33242
lowerneck -14.2957 -4.15799 -5.84179
upperneck 27.31 -7.42137 7.81473
head 11.8184 -3.23742 2.77675
rclavicle -8.74653e-015 6.04305e-014
rhumerus -27.2867 -20.9869 -70.1248
rradius 16.7384
rwrist 19.0035
rhand -14.1204 -23.267
rfingers 7.12502
rthumb 12.013 -52.9023
lclavicle -8.74653e-015 6.04305e-014
lhumerus -24.8866 -2.80822 79.6496
lradius 46.7335
lwrist -8.73305
lhand -16.1343 15.6264
lfingers 7.12502
lthumb 10.0706 45.3654
rfemur -24.0485 0.298596 26.7817
rtibia 21.0978
rfoot -0.294971 -11.9758
rtoes 18.6437
lfemur -7.5594 -2.15226 -9.82354
ltibia 50.9488
lfoot 13.4792 -5.28162
ltoes -12.6244
354
root -16.7051 17.9546 4.29222 426.699 -83.0496 -420.291
lowerback 0.128365 -1.3925 3.99819
upperback -0.812836 -1.92433 5.27587
thorax -0.85476 -1.02703 3.20742
lowerneck -14.2576 -4.25332 -5.89593
upperneck 27.3737 -7.5722 7.85765
head 11.8529 -3.30749 2.78046
rclavicle -1.64991e-014 4.6118e-014
rhumerus -27.2445 -21.6276 -69.957
rradius 16.2679
rwrist 20.2295
rhand -14.1062 -23.0576
rfingers 7.12502
rthumb 12.0267 -52.6921
lclavicle -1.64991e-014 4.6118e-014
lhumerus -25.5297 -3.42843 80.711
lradius 45.8825
lwrist -9.60767
lhand -14.7397 15.5932
lfingers 7.12502
lthumb 11.4158 45.2624
rfemur -23.0836 0.53999 27.3609
rtibia 20.8705
rfoot -0.79853 -12.0521
rtoes 18.5533
lfemur -8.68987 -1.79796 -9.28456
ltibia 52.807
lfoot 12.8497 -4.89675
ltoes -13.0591
355
root -16.8769 17.9728 4.2726 428.423 -82.859 -422.21
lowerback 0.165317 -1.28285 4.23953
upperback -0.730111 -1.78197 5.299
thorax -0.800558 -0.957883 3.09472
lowerneck -14.2132 -4.34588 -5.95093
upperneck 27.4491 -7.72135 7.90048
head 11.8909 -3.37724 2.78472
rclavicle -4.87022e-015 3.81667e-014
rhumerus -27.2005 -22.182 -69.8204
rradius 15.8739
rwrist 21.373
rhand -14.0969 -22.836
rfingers 7.12502
rthumb 12.0357 -52.4699
lclavicle -4.87022e-015 3.81667e-014
lhumerus -26.1574 -3.79268 81.7396
lradius 44.9494
lwrist -10.7296
lhand -13.2521 15.4797
lfingers 7.12502
lthumb 12.8501 45.0641
rfemur -22.0799 0.801091 27.832
rtibia 20.6074
rfoot -1.28751 -12.1344
rtoes 18.482
lfemur -9.78399 -1.39552 -8.86346
ltibia 54.5556
lfoot 11.8907 -4.36364
ltoes -13.8395
